<svg width="109" height="42" viewBox="0 0 109 42" fill="none" xmlns="http://www.w3.org/2000/svg">
<path d="M15.1693 34H8.80967V14.0523H1.58122V8.92632H22.4151V14.0523H15.1693V34ZM37.3238 8.24865C44.865 8.24865 49.6608 13.3051 49.6608 21.4545C49.6608 29.6212 44.865 34.6777 37.3238 34.6777C29.7478 34.6777 24.952 29.6212 24.952 21.4545C24.952 13.3051 29.8 8.24865 37.3238 8.24865ZM37.3238 13.531C33.7965 13.531 31.4507 16.6239 31.4507 21.4545C31.4507 26.3024 33.7617 29.3953 37.3238 29.3953C40.8512 29.3953 43.1796 26.3024 43.1796 21.4545C43.1796 16.6239 40.8338 13.531 37.3238 13.531ZM54.3871 8.90894H64.917C72.3887 8.90894 76.6459 13.3746 76.6459 21.2112C76.6459 29.4475 72.4582 34 64.917 34H54.3871V8.90894ZM60.7641 14.0349V28.8741H63.7702C67.9057 28.8741 70.1472 26.3024 70.1472 21.3328C70.1472 16.6587 67.7841 14.0349 63.7702 14.0349H60.7641ZM92.5797 8.24865C100.121 8.24865 104.917 13.3051 104.917 21.4545C104.917 29.6212 100.121 34.6777 92.5797 34.6777C85.0038 34.6777 80.208 29.6212 80.208 21.4545C80.208 13.3051 85.0559 8.24865 92.5797 8.24865ZM92.5797 13.531C89.0524 13.531 86.7066 16.6239 86.7066 21.4545C86.7066 26.3024 89.0176 29.3953 92.5797 29.3953C96.1071 29.3953 98.4355 26.3024 98.4355 21.4545C98.4355 16.6239 96.0897 13.531 92.5797 13.531Z" fill="white"/>
<line x1="2.07867" y1="22.9828" x2="105.659" y2="22.9828" stroke="#2B2828" stroke-width="7.41379"/>
</svg>
